<svg width="1708" height="825" viewBox="0 0 1708 825" fill="none" xmlns="http://www.w3.org/2000/svg">
<rect width="836.906" height="811.035" rx="100" transform="matrix(0.866041 0.499972 -0.866041 0.499972 702.832 0.972656)" fill="#E1D9ED"/>
<rect width="224.237" height="217.305" rx="20" transform="matrix(0.866041 0.499972 0.866041 -0.499972 1133.62 599.124)" fill="#E1D9ED"/>
<rect width="110.262" height="106.853" rx="20" transform="matrix(0.866041 0.499972 0.866041 -0.499972 1328.06 486.899)" fill="#E1D9ED"/>
<rect width="110.262" height="106.853" rx="20" transform="matrix(0.866041 0.499972 0.866041 -0.499972 1428.92 543.901)" fill="#E1D9ED"/>
<rect width="51.0724" height="49.4936" rx="5" transform="matrix(0.866041 0.499972 0.866041 -0.499972 1528.07 488.9)" fill="#E1D9ED"/>
<rect width="51.0724" height="49.4936" rx="5" transform="matrix(0.866041 0.499972 0.866041 -0.499972 1576.44 516.492)" fill="#E1D9ED"/>
<rect width="51.0724" height="49.4936" rx="5" transform="matrix(0.866041 0.499972 0.866041 -0.499972 1620.67 489.688)" fill="#E1D9ED"/>
<rect width="110.262" height="106.853" rx="20" transform="matrix(0.866041 0.499972 0.866041 -0.499972 1429.49 429.771)" fill="#E1D9ED"/>
</svg>